<svg width="175" height="175" viewBox="0 0 175 175" fill="none" xmlns="http://www.w3.org/2000/svg">
<path d="M87.4882 87.4882V0C96.6688 0 105.792 1.44501 114.524 4.28198L87.4882 87.4882Z" fill="#700B97"/>
<path d="M87.4882 87.4882L114.524 4.28198C123.255 7.11895 131.485 11.3125 138.912 16.7088L87.4882 87.4882Z" fill="#F4F0FD"/>
<path d="M87.4882 87.4882L138.912 16.7087C153.86 27.5685 164.985 42.8814 170.694 60.4529L87.4882 87.4882Z" fill="#E5DAFB"/>
<path d="M87.4882 87.4882L170.694 60.4529C185.626 106.406 160.477 155.763 114.524 170.694C105.792 173.531 96.6688 174.976 87.4882 174.976V87.4882Z" fill="#CBB6F8"/>
<path d="M87.4882 87.4882V174.976C39.1698 174.976 0 135.807 0 87.4882C0 39.1698 39.1698 0 87.4882 0V87.4882Z" fill="#8E05C2"/>
</svg>
