<svg width="20" height="20" viewBox="0 0 20 20" fill="none" xmlns="http://www.w3.org/2000/svg">
<g clip-path="url(#clip0_0_53)">
<path d="M15.6543 2.5L17.7441 8.75H18.75V10H18.5352C18.4049 10.3711 18.2227 10.7096 17.9883 11.0156C17.7539 11.3216 17.4805 11.5853 17.168 11.8066C16.8555 12.028 16.5169 12.1973 16.1523 12.3145C15.7878 12.4316 15.4036 12.4935 15 12.5C14.6029 12.5 14.222 12.4414 13.8574 12.3242C13.4928 12.207 13.1543 12.0378 12.8418 11.8164C12.5293 11.5951 12.2559 11.3314 12.0215 11.0254C11.7871 10.7194 11.6016 10.3776 11.4648 10H11.25V8.75H12.2559L14.3457 2.5H10V16.2695C11.0872 16.3411 12.1159 16.5853 13.0859 17.002C14.056 17.4186 14.9447 18.0013 15.752 18.75H17.5V20H1.25V18.75H2.99805C3.79883 18.0078 4.68424 17.4284 5.6543 17.0117C6.62435 16.5951 7.65625 16.3477 8.75 16.2695V2.5H4.4043L6.49414 8.75H7.5V10H7.28516C7.15495 10.3711 6.97266 10.7096 6.73828 11.0156C6.50391 11.3216 6.23047 11.5853 5.91797 11.8066C5.60547 12.028 5.26693 12.1973 4.90234 12.3145C4.53776 12.4316 4.15365 12.4935 3.75 12.5C3.35286 12.5 2.97201 12.4414 2.60742 12.3242C2.24284 12.207 1.9043 12.0378 1.5918 11.8164C1.2793 11.5951 1.00586 11.3314 0.771484 11.0254C0.537109 10.7194 0.351562 10.3776 0.214844 10H0V8.75H1.00586L3.0957 2.5H0V1.25H8.75V0H10V1.25H18.75V2.5H15.6543ZM3.75 4.47266L2.32422 8.75H5.17578L3.75 4.47266ZM3.75 11.25C4.19922 11.25 4.61589 11.1393 5 10.918C5.38411 10.6966 5.6901 10.3906 5.91797 10H1.58203C1.8099 10.3906 2.11589 10.6966 2.5 10.918C2.88411 11.1393 3.30078 11.25 3.75 11.25ZM13.7109 18.75C13.0599 18.3398 12.3665 18.0306 11.6309 17.8223C10.8952 17.6139 10.1432 17.5065 9.375 17.5C8.60677 17.5 7.85482 17.6042 7.11914 17.8125C6.38346 18.0208 5.6901 18.3333 5.03906 18.75H13.7109ZM15 4.47266L13.5742 8.75H16.4258L15 4.47266ZM15 11.25C15.4492 11.25 15.8659 11.1393 16.25 10.918C16.6341 10.6966 16.9401 10.3906 17.168 10H12.832C13.0599 10.3906 13.3659 10.6966 13.75 10.918C14.1341 11.1393 14.5508 11.25 15 11.25Z" fill="black"/>
</g>
<defs>
<clipPath id="clip0_0_53">
<rect width="20" height="20" fill="white"/>
</clipPath>
</defs>
</svg>
