<svg width="32" height="32" viewBox="0 0 32 32" fill="none" xmlns="http://www.w3.org/2000/svg">
<path d="M8.00008 26.6666H16.0001V28C16.0001 28.7333 15.4001 29.3333 14.6667 29.3333H9.33342C8.60008 29.3333 8.00008 28.7333 8.00008 28V26.6666ZM14.6667 19.8533V21.3333H9.33342V18.1066C6.97341 17.08 5.33341 14.7333 5.33341 12C5.33341 8.31996 8.32008 5.33329 12.0001 5.33329C13.2001 5.33329 14.3067 5.67996 15.2801 6.22663C16.0001 5.59996 16.8801 5.07996 17.8001 4.66663C16.2134 3.42663 14.2001 2.66663 12.0001 2.66663C6.84008 2.66663 2.66675 6.83996 2.66675 12C2.66675 15.1733 4.25341 17.96 6.66675 19.6533V22.6666C6.66675 23.4 7.26675 24 8.00008 24H16.0001C16.7334 24 17.3334 23.4 17.3334 22.6666V21.76C16.3334 21.28 15.4267 20.6666 14.6667 19.8533ZM27.8934 13.2533L27.2267 11.0666L28.9601 9.62663L26.7201 9.57329L25.8801 7.46663L25.1334 9.61329L22.8934 9.75996L24.6667 11.1333L24.1334 13.3333L26.0001 12.04L27.8934 13.2533ZM25.4934 16.3333C24.5859 16.184 23.7233 15.8335 22.9688 15.3075C22.2144 14.7815 21.5873 14.0932 21.1334 13.2933C20.1601 11.6133 20.0667 9.66663 20.6667 7.95996C20.8534 7.50663 20.4534 7.05329 20.0001 7.11996C15.4134 7.99996 13.3334 13.5066 16.2934 17.2666C18.7067 20.2533 23.3334 20.36 25.8534 17.3333C26.1601 16.9866 25.9601 16.4 25.4934 16.3333Z" fill="#FDF7FF"/>
</svg>
