<svg width="24" height="24" viewBox="0 0 24 24" fill="none" xmlns="http://www.w3.org/2000/svg">
<path d="M21.1429 6.85725H8.57146M6.28575 6.85725H2.85718M21.1429 18.2858H8.57146M6.28575 18.2858H2.85718M15.4286 12.5715H2.85718M21.1429 12.5715H17.7143M7.42861 4.57153C7.73171 4.57153 8.0224 4.69194 8.23673 4.90627C8.45106 5.1206 8.57146 5.41129 8.57146 5.71439V8.0001C8.57146 8.30321 8.45106 8.5939 8.23673 8.80823C8.0224 9.02255 7.73171 9.14296 7.42861 9.14296C7.1255 9.14296 6.83481 9.02255 6.62048 8.80823C6.40616 8.5939 6.28575 8.30321 6.28575 8.0001V5.71439C6.28575 5.41129 6.40616 5.1206 6.62048 4.90627C6.83481 4.69194 7.1255 4.57153 7.42861 4.57153ZM7.42861 16.0001C7.73171 16.0001 8.0224 16.1205 8.23673 16.3348C8.45106 16.5492 8.57146 16.8399 8.57146 17.143V19.4287C8.57146 19.7318 8.45106 20.0225 8.23673 20.2368C8.0224 20.4511 7.73171 20.5715 7.42861 20.5715C7.1255 20.5715 6.83481 20.4511 6.62048 20.2368C6.40616 20.0225 6.28575 19.7318 6.28575 19.4287V17.143C6.28575 16.8399 6.40616 16.5492 6.62048 16.3348C6.83481 16.1205 7.1255 16.0001 7.42861 16.0001ZM16.5715 10.2858C16.8746 10.2858 17.1653 10.4062 17.3796 10.6206C17.5939 10.8349 17.7143 11.1256 17.7143 11.4287V13.7144C17.7143 14.0175 17.5939 14.3082 17.3796 14.5225C17.1653 14.7368 16.8746 14.8572 16.5715 14.8572C16.2684 14.8572 15.9777 14.7368 15.7633 14.5225C15.549 14.3082 15.4286 14.0175 15.4286 13.7144V11.4287C15.4286 11.1256 15.549 10.8349 15.7633 10.6206C15.9777 10.4062 16.2684 10.2858 16.5715 10.2858Z" stroke="#FDF7FF" stroke-linecap="round" stroke-linejoin="round"/>
</svg>
