<svg width="32" height="32" viewBox="0 0 32 32" fill="none" xmlns="http://www.w3.org/2000/svg">
<path d="M8.00002 26.6667H16V28C16 28.7333 15.4 29.3333 14.6667 29.3333H9.33335C8.60002 29.3333 8.00002 28.7333 8.00002 28V26.6667ZM14.6667 19.8533V21.3333H9.33335V18.1067C6.97335 17.08 5.33335 14.7333 5.33335 12C5.33335 8.32 8.32002 5.33333 12 5.33333C13.2 5.33333 14.3067 5.68 15.28 6.22667C16 5.6 16.88 5.08 17.8 4.66667C16.2134 3.42667 14.2 2.66667 12 2.66667C6.84002 2.66667 2.66669 6.84 2.66669 12C2.66669 15.1733 4.25335 17.96 6.66669 19.6533V22.6667C6.66669 23.4 7.26669 24 8.00002 24H16C16.7334 24 17.3334 23.4 17.3334 22.6667V21.76C16.3334 21.28 15.4267 20.6667 14.6667 19.8533ZM27.8934 13.2533L27.2267 11.0667L28.96 9.62667L26.72 9.57333L25.88 7.46667L25.1334 9.61333L22.8934 9.76L24.6667 11.1333L24.1334 13.3333L26 12.04L27.8934 13.2533ZM25.4934 16.3333C24.5858 16.1841 23.7232 15.8336 22.9688 15.3075C22.2143 14.7815 21.5872 14.0933 21.1334 13.2933C20.16 11.6133 20.0667 9.66667 20.6667 7.96C20.8534 7.50667 20.4534 7.05333 20 7.12C15.4134 8 13.3334 13.5067 16.2934 17.2667C18.7067 20.2533 23.3334 20.36 25.8534 17.3333C26.16 16.9867 25.96 16.4 25.4934 16.3333Z" fill="black"/>
</svg>
