<svg width="337" height="337" viewBox="0 0 337 337" fill="none" xmlns="http://www.w3.org/2000/svg">
<path d="M303.945 306.832C303.706 306.875 303.443 306.886 303.286 306.938C303.094 307.002 301.287 309.205 300.279 307.713C299.779 306.972 299.822 308.686 298.914 308.509C298.132 308.357 298.311 309.344 298.232 309.843C298.174 310.207 300.12 313.155 297.912 312.081C297.116 311.694 296.32 311.306 295.524 310.919C294.215 310.283 292.856 310.963 291.408 310.575C290.047 310.211 290.11 307.651 288.806 307.067C287.825 306.628 287.761 305.941 286.972 305.26C285.757 304.209 286.69 304.27 284.669 303.517C283.497 303.08 283.787 302.354 282.451 302.354C282.196 302.354 281.065 301.159 281.065 301.042C281.065 299.948 280.693 298.118 280.191 297.125C279.679 296.112 280.544 295.023 280.894 294.177C281.135 293.597 280.867 292.775 281.15 292.262C281.449 291.722 281.617 291.188 281.726 290.584C281.9 289.62 281.556 289.153 281.556 288.367C281.556 287.869 282.065 287.702 282.131 287.119C282.251 286.063 282.75 285.756 282.75 284.623C282.75 283.483 283.702 283.416 283.752 282.428C283.755 282.375 283.766 282.356 283.816 282.342C285.059 281.98 284.311 281.544 284.883 281.223C285.792 280.711 284.663 280.551 284.605 279.975C284.567 279.594 284.861 279.274 284.712 278.942C284.409 278.265 284.328 278.218 284.328 277.435C284.328 276.763 284.094 276.148 284.094 275.563C284.094 275.238 284.423 274.981 284.243 274.616C283.979 274.082 283.241 273.926 283.241 273.239C283.241 272.535 283.989 272.562 284.136 271.668C284.227 271.118 284.365 269.932 284.136 269.495C283.838 268.925 284.373 268.483 284.477 267.967C284.539 267.661 284.564 267.176 284.755 266.934C285.077 266.525 285.278 266.366 285.096 265.815C284.899 265.221 284.119 265.219 284.072 264.588C284.052 264.309 284.136 263.875 284.051 263.599C283.85 262.948 283.963 262.28 283.347 261.877C283.107 261.72 283.365 261.229 283.305 260.93C283.235 260.586 282.693 260.404 282.539 259.976L282.068 258.627L279.594 257.594L280.02 256.217L282.494 255.356L284.925 253.42L288.209 249.374L289.403 247.653L289.787 246.103L288.715 243.559L320.323 238.895L318.533 233.601L314.994 227.941L314.227 224.111L311.539 218.688L308.341 215.546L305.441 214.04L302.54 211.501L301.389 208.703L299.725 206.379L298.915 200.698L299.299 199.751L300.792 196.997L300.621 194.759L299.512 192.306L297.892 186.711L296.953 185.635L296.271 182.837L296.399 179.609L297.721 176.597L297.699 174.574L296.74 169.022L295.695 166.978L294.458 165.579L294.223 162.674L294.543 160.178L294.137 156.057C294.13 155.774 294.154 155.488 294.117 155.207C294.084 154.964 294.002 154.711 294.138 154.497C294.226 154.357 294.331 154.222 294.351 154.066C294.398 153.699 294.35 153.317 294.415 152.926C294.468 152.612 294.528 152.324 294.628 152.022C294.765 151.61 294.579 151.127 294.458 150.731C294.056 149.423 292.407 149.973 292.176 148.622C292.005 147.622 291.525 147.097 290.662 146.707C290.074 146.441 291.086 145.823 291.003 145.459C290.806 144.588 289.422 145.013 288.956 144.275C288.89 144.17 288.825 143.979 288.765 143.746L157.84 222.889L168.593 222.892C169.135 223.76 169.865 224.407 169.941 225.575C170.025 226.88 169.731 228.03 169.535 229.319C169.356 230.501 166.911 234.315 168.469 235.452C169.14 235.941 169.05 236.129 169.109 236.915C169.136 237.278 169.593 237.558 169.791 237.883C170.286 238.697 170.197 239.353 170.815 240.143C171.026 240.412 171.327 243.303 171.327 243.844C171.327 244.354 170.996 244.705 171.241 245.2C171.505 245.732 170.743 246.612 170.687 247.33C170.555 249.003 169.98 250.828 169.578 252.452C169.22 253.896 170.238 257.722 169.301 258.671C168.521 259.461 169.471 259.872 169.535 260.737C169.625 261.938 170.175 263.01 170.474 264.029C170.75 264.971 172.042 265.222 172.222 265.729C172.384 266.182 172.581 267.261 173.182 267.322C174.915 267.499 174.743 268.003 175.293 269.538C175.654 270.545 175.857 271.115 175.954 272.314C176.104 274.162 178.128 275.06 177.127 277.349C176.469 278.855 179.39 282.021 177.639 283.074C176.904 283.516 175.537 283.134 175.293 284.193C174.957 285.652 176.433 287.037 176.53 288.346C176.598 289.263 176.615 290.26 176.615 291.186L177.511 291.057C178.54 289.262 180.028 290.069 180.774 288.217C181.34 286.812 183.04 287.987 183.93 288.346C185.437 288.954 185.501 288.292 186.681 287.765C187.204 287.531 188.039 288.416 188.621 288.539C190.064 288.845 191.234 287.908 192.524 288.195C193.451 288.401 194.87 286.875 195.85 286.517C196.55 286.485 197.196 286.122 197.94 286.258C198.962 286.445 199.942 287.076 200.968 287.076C201.637 287.076 202.109 286.968 202.781 287.098C203.584 287.253 204.761 286.889 205.17 286.151C205.418 285.7 205.162 284.773 206.022 284.773L206.811 284.967C206.97 284.981 207.346 285.157 207.515 285.225C207.698 285.298 207.917 285.32 208.07 285.462C208.442 285.807 208.164 286.17 208.39 286.538C208.493 286.707 208.593 287.031 208.667 287.226C208.76 287.474 208.938 287.69 209.221 287.485C209.706 287.133 209.728 287.485 210.138 287.721C213.443 287.721 211.588 289.806 212.655 290.282C212.968 290.422 212.887 291.096 212.825 291.358C212.74 291.72 212.206 292.969 211.887 293.101C211.681 293.186 211.051 293.48 210.991 293.661C211.421 293.802 211.988 293.819 212.505 293.919C213.528 294.117 213.207 295.014 214.425 294.952C214.854 294.93 215.355 294.432 215.704 294.694C216.192 295.059 216.258 293.933 216.77 293.747C217.573 293.455 217.551 292.82 218.562 292.563C218.562 291.762 219.508 292.248 220.097 292.133C220.746 292.006 220.893 291.487 221.739 291.487C223.347 291.487 225.377 291.341 226.921 290.927C227.631 290.738 229.01 289.15 228.734 290.777C228.734 290.96 228.321 291.546 228.691 291.638C228.691 291.716 228.67 291.78 228.67 291.831C228.461 291.884 228.088 292.033 227.966 292.197C228.094 292.37 228.222 292.61 228.222 292.843C228.492 292.933 227.668 293.234 227.668 293.381C227.668 293.59 227.825 294.061 227.902 294.285C228.067 294.763 228.675 295.369 228.244 295.77C227.685 296.289 228.245 296.1 228.35 296.566C228.891 298.947 231.25 298.012 231.25 300.095C231.25 301.234 233.41 299.353 233.959 299.6C234.714 299.94 234.407 301.235 235.771 301.235C236.523 301.235 237.986 300.623 238.053 301.451C238.143 302.563 239.567 301.666 239.567 303.28C241.481 303.28 243.335 302.869 244.856 303.495C245.394 303.716 246.251 303.171 246.604 302.785C247.966 302.284 247.896 303.874 248.95 303.968L252.085 304.248C252.84 304.316 252.364 303.072 253.173 303.624C253.955 304.158 254.847 304.252 255.305 303.215C255.497 302.781 256.073 303.152 256.073 302.806C256.073 302.017 256.182 302.223 256.67 301.731C257.028 301.369 256.819 300.502 256.819 300.009C256.819 299.157 257.77 299.635 257.459 298.761C257.082 297.703 256.709 297.52 257.971 297.276C258.449 297.184 260.27 296.731 260.316 297.362C260.374 298.134 260.398 300.026 260.914 300.547C261.565 301.205 264.153 302.158 264.39 302.742C264.629 303.333 264.328 304.61 264.582 305.044C264.768 305.365 265.089 305.368 265.243 305.819C265.576 306.394 265.536 306.933 265.925 307.498C266.162 307.842 266.621 307.733 266.864 307.949C267.698 308.695 266.252 308.936 268.164 309.305C269.839 309.629 271.962 306.261 272.685 309.198C273.293 311.662 273.847 309.372 274.861 310.532C275.061 310.761 275.551 312.841 276.161 311.328C276.486 310.523 277.516 311.071 278.145 311.414L280.469 312.684C281.072 313.013 280.597 313.192 280.853 313.631C281.12 314.089 281.753 314.303 282.111 314.685C283.899 316.597 280.67 315.498 281.62 317.311C281.83 317.71 283.234 319.893 283.39 319.893L284.094 318.451C284.341 318.451 284.453 318.467 284.67 318.602C284.765 318.662 285.162 319.032 285.054 319.076C286.344 320.225 287.378 320.862 287.378 322.648C287.378 324.076 288.785 324.338 289.127 325.381C289.3 325.906 289.367 327.659 289.788 327.92C290.558 328.396 289.945 328.101 290.236 328.759C290.476 329.303 291.556 328.5 291.857 328.307C293.504 327.247 292.802 330.174 294.779 328.415C296.273 327.083 297.53 327.785 299.107 326.004C300.462 324.476 300.857 326.223 301.517 325.682C301.699 325.533 301.765 327.941 300.685 327.941C300.748 328.194 301.108 329.146 301.368 329.146C301.498 329.146 301.658 329.187 301.824 329.244H303.946V306.832H303.945Z" fill="#007FFF"/>
<path d="M312.243 31.9455C309.722 31.9455 311.131 30.758 309.918 29.7075C309.198 29.084 307.888 28.6995 307.423 27.8139C307.008 27.023 306.524 25.1616 305.483 25.1024C303.078 24.9657 303.963 23.2558 304.289 21.5948C304.692 21.4945 303.204 20.9803 302.988 20.9491C302.975 20.8949 302.979 20.9139 302.924 20.9062C302.694 19.9862 300.123 19.7012 299.384 19.7012C298.614 19.7012 299.32 18.8521 298.318 19.2277C298.094 19.848 298.64 20.3799 298.531 20.7771C298.407 21.2264 298 21.3543 297.87 21.853C297.596 22.8981 296.441 22.7535 296.441 23.7897C296.441 24.7518 295.351 24.3061 294.884 24.3061C294.877 24.327 294.841 24.3637 294.82 24.3705C294.82 25.0789 294.135 25.3927 293.69 24.8225L292.815 23.7035C292.751 23.4417 291.974 24.0586 291.856 23.4453C291.819 23.2534 291.486 22.8149 291.301 22.7782C290.898 21.9646 287.618 23.7452 286.93 21.315C285.732 21.315 285.657 23.2068 284.84 23.5744L282.494 24.6289C281.614 25.0247 281.983 25.3602 281.513 25.8339C280.915 26.4363 279.678 26.0406 279.445 25.2742C279.118 24.2048 277.78 25.2225 276.758 24.7365C275.376 24.0388 277.127 23.143 275.116 23.5313C273.782 23.7885 274.502 21.7126 273.964 21.3795C273.854 21.311 272.507 21.1906 272.471 21.2719C271.932 22.4999 271.235 21.1606 270.637 20.7553C269.971 20.3038 269.671 18.8056 269.87 18.0225C270.038 17.3609 269.058 16.9887 268.612 16.6884C267.818 16.1545 267.964 15.4311 266.735 15.5908C265.451 15.7577 265.303 15.1781 265.05 14.1276C264.816 14.0098 264.629 13.7203 264.453 13.525C264.328 13.3854 264.301 13.3443 264.298 13.2654C264.213 13.1435 264.06 12.9486 263.963 12.8364C263.805 12.6543 263.554 12.3411 263.323 12.2767C263.098 12.2138 262.853 12.1653 262.641 12.0831C262.092 11.8708 261.667 12.1907 261.127 11.7818C260.349 11.1933 259.216 10.4961 258.227 10.5122C257.647 10.5216 256.372 11.0544 255.902 11.4374C255.329 11.9047 255.145 12.9534 254.793 13.1804C253.975 13.7078 252.817 12.1919 251.829 12.4273C251.031 12.6174 250.096 12.435 249.462 12.6424C249.068 12.7713 248.759 13.3741 248.246 13.2021C246.919 12.7564 247.346 11.2991 245.368 11.5665C244.371 11.7015 244.354 11.121 243.811 10.5768C241.999 8.76158 241.212 11.3778 239.78 10.082C239.406 9.74342 239.286 10.5424 239.119 10.6846C238.928 10.8473 236.566 10.3593 236.496 10.2757C236.123 9.82942 236.499 9.1515 235.622 9.67314C235.281 9.87575 234.73 8.20007 234.257 8.42504C232.701 9.16459 233.085 6.31957 231.975 7.82244C231.852 7.98981 230.038 8.18476 229.843 8.12374C229.281 7.94751 228.797 9.48966 228.542 9.97443C227.86 11.2721 229.264 11.1182 228.883 11.9325C228.598 12.5437 228.383 12.8003 227.753 13.1592C226.7 13.759 226.303 13.5945 225.258 13.6756C224.88 13.7048 224.754 14.4029 224.384 14.6224C223.869 14.9277 223.276 14.2931 222.848 14.1276C222.225 13.8861 217.712 16.2635 217.218 15.139C217.09 14.846 217.403 14.6456 217.069 14.3642C216.675 14.0321 215.61 13.3477 215.363 12.987C214.57 11.8259 213.394 12.7202 212.825 12.2769C211.951 11.5951 212.7 13.4648 212.655 13.4819C211.183 14.0305 210.793 14.5729 209.413 14.816C209.12 14.8677 208.681 15.7525 208.368 15.5908C208.105 15.4546 208.003 15.1686 207.686 15.4186C206.844 16.0826 205.979 15.566 205.234 16.2794C204.145 17.3224 204.827 17.0324 203.336 17.0324C202.436 17.0324 200.092 17.8404 199.263 18.2805C198.486 18.6928 197.642 18.9901 197.002 19.6793C195.894 20.8732 194.133 20.7046 193.505 19.4642C193.233 18.9276 192.671 18.6183 192.332 18.4958C191.636 18.2445 191.123 19.0577 190.264 18.7109C189.488 18.3979 188.204 15.2325 187.321 17.2046C186.59 18.8366 186.476 18.1389 185.252 19.0984C184.612 19.6005 184.763 21.0254 184.399 21.8097C183.798 23.1073 183.502 22.1368 182.693 22.6489C182.153 22.9913 182.693 23.7746 182.693 24.2412C182.693 25.0666 181.648 25.1415 181.606 25.8122C181.51 27.3306 180.939 28.1309 180.121 28.4798C178.32 29.2477 175.323 27.8329 173.545 27.082C173.428 27.0329 173.307 26.9928 173.182 26.961C172.306 26.7378 171.222 27.0387 170.346 26.7807C169.565 26.5509 168.23 25.8293 167.424 25.7048C166.262 25.525 165.862 26.4498 164.844 26.6085C163.5 26.8182 160.491 25.1188 159.939 25.4249C158.436 26.2597 158.099 25.47 156.997 24.5856C155.871 23.6827 154.056 22.8403 152.518 23.4882C151.435 23.9446 150.494 23.7677 149.298 23.7677C147.674 23.7677 147.776 22.8852 146.782 21.9817C146.564 21.7839 146.27 21.5465 146.27 21.2284C146.27 21.0276 146.27 20.8268 146.27 20.6258C146.27 20.1066 145.954 19.8774 145.63 19.55C145.357 19.2742 145.279 18.8712 145.076 18.5172C144.448 17.4245 143.776 17.7079 142.794 17.1831C142.084 16.8034 141.977 16.118 141.259 15.6981C140.249 15.1078 137.404 14.4285 136.844 13.6752C136.233 12.8529 135.282 11.7575 134.221 11.545C132.771 11.2544 130.659 11.3466 129.21 11.6525C128.422 11.8187 125.318 14.051 125.094 14.7942C125.082 14.8349 125.072 14.8504 125.03 14.8587C123.89 15.0907 123.691 14.8422 123.068 15.9777C122.402 17.1921 121.848 18.5421 120.936 19.5498C120.207 20.3548 119.341 20.9777 118.718 21.9384C117.268 24.1726 117.901 24.8005 114.922 24.8005C113.413 24.8005 113.781 25.5979 114.645 26.5435C115.505 27.4848 116.04 30.3353 115.647 31.5359C114.97 33.5992 115.509 35.3547 115.54 37.4321C115.549 38.0215 115.558 38.6112 115.567 39.2009C115.586 40.4977 115.606 41.7949 115.626 43.0918C115.649 44.619 115.492 45.02 114.73 46.2121C114.659 46.3241 114.479 46.3521 114.367 46.4057C114.304 46.4363 114.32 46.4173 114.282 46.4701C114.058 46.7837 113.875 46.9913 113.77 47.3738C113.52 48.8882 112.473 50.7123 111.894 52.1726C111.176 53.9819 110.521 55.1864 108.972 56.3473C108.329 56.8295 108.637 58.5785 107.756 59.2739C106.17 60.5277 106.707 61.5385 106.093 63.212C105.772 64.0867 106.284 64.5271 106.519 65.2991C106.642 65.7009 106.193 66.4626 106.008 66.784C105.464 67.7296 105.797 69.5642 106.178 70.5283C106.569 71.5162 106.44 71.9484 106.072 72.917C105.637 74.0581 104.942 75.0474 104.494 76.2526C104.173 77.1134 104.1 78.9939 103.513 79.6312C103.002 80.186 102.495 80.8082 102.319 81.5678C101.944 83.1773 102.702 84.4757 102.702 85.9363C102.702 87.1439 103.131 87.984 103.278 89.0995C103.363 89.7448 103.904 89.852 104.089 90.4767C104.391 91.5011 104.609 92.2579 103.918 93.188C103.409 93.8736 102.694 94.1699 102.212 94.7805C101.063 96.2369 100.783 97.7005 100.783 99.5362C100.783 100.823 99.5187 101.418 99.333 102.506C99.1377 103.65 100.851 104.953 100.122 106.336C99.7558 107.03 100.119 107.909 100.118 108.695C99.69 109.258 99.1956 109.723 98.6933 110.124C97.8359 110.808 96.8284 111.326 95.9636 112.082C95.2645 112.693 94.9776 113.683 94.5348 114.492C93.3494 116.658 92.0982 116.436 89.9926 116.881C88.4625 117.204 87.8891 117.74 86.7299 118.753C86.384 119.055 86.0104 119.449 85.6364 119.892C84.6796 121.022 83.5772 122.407 83.1688 123.508C82.7026 124.766 82.3261 126.153 81.6579 127.458C80.1326 130.437 77.8141 133.206 75.2785 134.914C74.025 135.757 74.4496 138.602 74.7451 139.863C74.9406 140.697 75.5573 142.797 75.4064 143.586C75.2367 144.471 74.8984 145.281 74.7239 146.168C74.4678 147.469 74.3593 148.265 74.4041 149.632C74.4347 150.564 74.1794 151.355 74.3613 152.258C74.4626 152.761 74.1992 154.073 74.7879 154.776C75.5009 155.627 73.6962 158.296 72.8686 159.058C72.0706 159.793 70.8129 162.567 70.3736 163.663C70.0109 164.567 70.0689 165.802 69.2859 166.374C68.2931 167.1 66.5398 166.557 65.2981 166.761C64.0579 166.965 63.7077 167.29 63.2297 168.44C63.0714 168.821 63.0144 169.041 63.0012 169.241C62.984 169.497 63.0378 169.719 63.0378 170.205C63.0378 171.565 62.65 172.507 61.0119 172.335C60.3427 172.265 60.0858 171.886 59.661 171.869C59.4949 171.863 59.3025 171.911 59.0501 172.055C58.7254 172.24 57.9424 172.575 57.7279 172.851C57.2979 173.406 56.9706 174.321 56.4057 174.702C55.3564 175.41 54.2961 176.958 53.4203 177.908C52.7292 178.659 51.7781 180.972 51.0958 181.308C50.4845 181.61 49.873 181.911 49.2619 182.212C48.3289 182.672 47.4001 182.003 46.6175 181.61C45.7869 181.193 45.1412 181.623 44.4535 182.067C44.3066 182.163 44.3536 182.103 44.3624 181.953L44.5916 178.081C44.2718 177.77 43.76 177.296 43.76 176.876C43.7189 176.855 43.7248 176.823 43.6747 176.811C43.6747 176.733 43.6107 176.713 43.6107 176.639C43.5689 176.625 43.5301 176.336 43.6107 176.316C43.6231 176.267 43.6421 176.287 43.6535 176.252C44.1437 176.252 45.5514 174.802 45.5514 174.25C45.2669 174.18 45.0824 173.74 44.8049 173.669C44.7887 173.603 44.672 173.585 44.6556 173.519C44.5866 173.505 44.5964 173.468 44.5277 173.454C44.5277 173.39 44.5059 173.381 44.4423 173.368C44.2932 172.762 44.3783 172.441 44.3783 171.776C44.0915 171.68 43.824 171.855 43.824 172.206C43.3806 172.317 42.8357 172.226 42.3953 172.335C42.3953 173.648 40.3366 173.47 39.623 173.648C39.623 174.035 38.3957 173.644 37.9384 174.165C37.455 174.716 36.3859 176.449 35.3794 175.434C34.5094 174.558 34.9264 173.87 33.3107 174.272C33.1662 174.862 33.3225 177.676 32.5859 177.823C32.5769 177.859 32.5715 177.878 32.5431 177.888V178.017C33.2146 178.184 33.0706 178.684 32.4791 178.813C31.9756 178.923 32.5877 179.38 32.4791 179.824C31.87 179.976 31.6907 179.459 31.2635 179.566C30.9312 180.922 30.9436 180.492 29.9413 179.953C29.7362 179.591 29.6726 179.64 29.3654 179.717C29.3654 180.211 29.0785 180.523 28.8748 180.943C28.7037 181.297 28.1226 181.74 28.0432 182.062C27.995 182.062 27.8809 182.105 27.8299 182.127C27.7779 181.969 27.0834 181.907 27.0834 181.718C27.0834 180.043 25.4758 179.841 24.2898 178.963C23.7122 178.536 23.5979 177.756 23.2448 177.221C23.0188 176.878 22.8818 176.855 22.4772 176.855C22.1999 176.855 22.5412 177.612 22.5412 177.737L22.3279 178.361L21.4961 178.792C20.8294 179.166 20.1357 178.906 19.5556 179.33C18.9998 179.735 18.318 179.876 17.8284 180.427C17.5395 180.752 17.3266 181.519 16.954 181.718C16.3273 182.053 16.4604 182.755 15.9942 183.095C15.1918 183.681 14.5661 182.722 14.1817 183.848C13.9238 184.604 12.4827 185.226 11.6441 185.226C11.6441 185.835 12.4691 186.103 12.8383 186.431L12.6464 196.329L8.74385 196.394L7.37769 197.494L7.48564 197.556C9.01552 199.38 9.70679 201.558 12.3478 201.558C12.4601 201.558 12.5211 201.599 12.5451 201.662C13.1946 201.468 14.7164 200.954 15.3545 201.064C17.6563 201.46 17.782 199.131 19.6197 199.622C20.4302 199.838 20.747 199.036 21.3897 198.718C21.9754 198.428 22.3157 198.972 22.8184 199.127C23.78 199.424 24.5213 198.025 25.7187 198.998C26.6718 199.772 27.4389 199.003 28.1346 198.266C28.9142 198.326 29.3214 198.379 29.8132 198.933C30.0557 199.207 30.3299 198.827 30.6662 198.761C31.882 198.524 33.2454 198.911 34.4834 198.911C35.8505 198.911 37.066 198.491 38.4591 198.379L313.161 32.324C312.88 32.1139 312.559 31.9455 312.243 31.9455Z" fill="#007FFF"/>
<path d="M288.464 141.224L288.316 140.897C288.316 139.975 289.187 139.671 289.766 139.132C289.966 138.945 290.081 138.732 290.235 138.53C290.354 138.373 290.326 137.886 290.704 137.97C291.246 138.089 291.543 138.07 292.027 137.712C292.588 137.295 292.86 136.533 293.05 135.861C293.618 134.33 292.849 133.183 292.624 131.772C292.406 130.408 293.383 129.654 294.052 128.631C294.448 128.026 294.615 126.906 295.097 126.522C296.026 125.782 296.136 124.563 297.358 124.563C298.166 124.563 298.535 123.994 298.893 123.38C299.449 122.426 299.654 122.875 300.471 122.476C300.471 121.79 300.483 121.17 300.461 120.563L139.144 218.078L143.924 218.086L144.35 216.644L149.276 216.602L147.869 220.26V222.885L157.84 222.889L288.765 143.746C288.558 142.941 288.409 141.597 288.464 141.224Z" fill="#F7D618"/>
<path d="M111.126 235.581C111.847 235.356 111.889 235.151 112.789 235.151L113.962 235.215L114.026 233.86L117.993 233.838L118.504 235.129H128.079C127.959 234.417 127.781 233.649 127.781 232.934C127.781 232.027 128.549 231.351 128.549 230.416C128.549 229.996 127.932 227.947 128.101 227.834L129.721 227.812C129.98 227.29 130.166 226.894 130.66 226.586C131.169 226.268 130.747 225.174 130.574 224.714C130.473 224.444 130.466 223.855 130.469 223.321L110.42 235.441C110.649 235.573 110.887 235.656 111.126 235.581Z" fill="#F7D618"/>
<path d="M323.182 40.4024C323.182 39.3908 323.035 39.6119 322.201 39.4127C321.292 39.4127 321.583 38.9012 321.583 38.3151C321.583 37.5818 320.862 37.9135 320.73 37.4329C320.615 37.0148 320.806 36.7206 320.261 36.6152C319.388 36.4465 319.718 37.6932 318.896 37.3254C318.182 37.0064 317.489 37.9081 316.956 37.1747C316.642 36.7439 316.853 36.204 317.02 35.7546C317.841 32.7044 315.221 34.2504 314.909 32.9787H314.866C314.855 32.9356 314.181 33.2993 313.608 32.7203C313.48 32.5912 313.328 32.4506 313.161 32.325L38.4587 198.38C38.6714 198.363 38.8881 198.353 39.1104 198.353C39.8367 198.353 40.541 198.029 41.0083 198.611C41.6173 199.369 41.8286 198.589 42.3731 198.589C42.6794 199.52 48.3597 199.233 49.1545 198.869L51.3297 198.74L64.5695 198.708L321.818 43.2035C322.304 42.3041 323.182 41.5081 323.182 40.4024Z" fill="#F7D618"/>
<path d="M300.215 118.603C300.106 118.139 300.047 115.396 300.492 115.246C300.492 114.814 300.367 114.678 300.279 114.407L300.3 114.385C300.446 114.385 300.597 114.342 300.748 114.342C300.762 114.286 300.761 114.286 300.812 114.278C301.044 113.099 300.772 111.772 301.089 110.619C301.178 110.297 301.58 109.817 301.58 109.522C301.58 108.957 301.349 109.022 301.601 108.36C301.872 107.649 301.493 107.132 301.559 106.445L302.582 101.216C302.582 100.529 302.881 99.9332 302.881 99.3006C302.881 98.756 302.346 98.3586 302.625 97.7943C302.792 97.4565 302.755 96.9023 302.988 96.6106C303.357 96.1474 304.045 96.2793 304.31 95.8789C304.539 95.5327 304.46 95.1166 304.608 94.7171C305.156 92.9199 305.411 91.9902 306.656 90.6284C306.943 90.3138 306.938 89.7333 306.89 89.3372C306.807 88.6415 306.656 88.109 306.656 87.3791C306.656 86.4376 306.811 85.4072 306.775 84.4064C307.431 84.06 308.199 83.7855 308.831 83.7855C309.662 83.7855 309.646 83.8711 310.004 83.0538C310.197 82.6107 310.783 82.6596 311.049 82.2576C311.246 81.9592 311.395 81.6585 311.091 81.3753C310.762 81.0676 311.582 80.4158 311.582 80.0841C311.582 79.6567 311.514 78.6954 312.286 78.9653C312.357 78.9903 312.3 79.1029 312.35 79.1375C312.45 79.2078 312.79 79.5242 312.947 79.2666C313.111 78.9955 312.901 78.5349 313.437 78.5349C313.732 78.5349 314.048 78.6944 314.397 78.6425C314.657 78.6036 314.893 78.4628 315.141 78.3732L319.643 73.3274L324.931 68.9161L329.623 62.783L327.704 61.3842C327.38 60.9774 327.625 60.4237 327.512 59.9641C326.853 59.797 326.289 60.5877 325.806 60.0501C325.346 59.5381 325.477 59.0306 324.953 58.5007C324.575 58.1183 324.071 58.2961 323.609 58.135C322.951 57.9054 323.54 59.2969 322.82 59.2969C321.707 59.2969 321.827 58.2707 321.306 57.683C321.018 57.3578 320.391 57.6341 319.984 57.5324C319.93 57.1451 319.932 56.7676 320.005 56.3705C320.04 56.183 319.952 55.0255 319.984 55.0146C319.984 54.9309 320.053 54.8926 320.069 54.8424C320.52 54.7298 320.843 53.888 320.965 53.5083C321.211 52.739 321.228 52.5253 321.69 51.8729C323.017 50.5356 321.73 49.0009 321.093 47.8274C320.369 46.4937 321.151 44.4732 321.797 43.2436C321.804 43.2305 321.811 43.2174 321.818 43.2043L64.5696 198.709L78.5834 198.675C79.0486 198.413 79.6683 198.467 80.1615 198.632L80.8471 198.735C80.9527 198.977 81.0359 199.245 81.0359 199.687C81.0359 200.138 81.2594 201.239 81.633 201.667C82.1261 202.232 83.7656 203.172 83.339 203.948C82.9302 204.69 83.6926 205.912 82.9338 206.573C82.2875 207.137 83.0665 208.278 83.2322 209.284C83.2618 209.464 83.7436 209.668 83.8293 209.866C83.8755 209.972 83.709 210.328 83.7014 210.403C83.6306 211.112 84.1066 211.846 84.1066 212.684C84.1066 213.349 84.6508 213.14 84.8105 213.653C84.996 214.249 85.1719 214.206 85.2795 214.944C85.5058 216.496 85.958 215.572 86.2818 216.149C86.4015 216.362 86.4099 217.542 86.4311 217.806C86.4925 218.567 86.9877 218.623 87.3909 219.076C87.9336 219.685 86.9693 219.7 86.8363 219.893C86.5883 220.255 87.199 220.656 87.199 221.185C87.199 221.476 87.2707 222.031 87.4764 222.325C87.7719 222.747 89.729 223.773 89.9501 224.262C90.3675 225.184 90.4758 224.856 91.0803 225.338C91.3444 225.548 90.5014 225.952 90.8245 226.156C91.7033 226.71 91.3512 227.172 91.784 227.877C92.3058 228.727 92.9681 228.239 92.9783 229.491C92.9783 229.502 93.0218 229.604 93.0422 229.62C93.0738 229.645 93.0494 229.645 93.085 229.663C93.178 229.712 93.2495 229.803 93.3195 229.857C93.3597 229.888 93.3905 229.974 93.4263 230.007C93.4578 230.037 93.5116 230.229 93.5116 230.244C93.5256 231.583 94.3242 230.981 94.5139 231.729C94.6703 232.346 96.0752 232.66 95.6868 233.365C95.4161 233.856 95.4699 234.179 96.028 234.311C96.4532 234.412 96.3053 234.714 96.3053 234.978C96.3053 235.273 97.1687 235.41 96.9024 235.947C96.7545 236.245 96.6012 236.369 96.6232 236.616L97.9054 237.41C98.8813 237.241 99.4894 236.872 100.464 236.872C101.18 236.872 101.263 237.349 101.936 236.786C102.458 236.35 104.643 236.872 105.454 236.872C105.742 236.872 106.364 236.996 106.627 236.894C106.703 236.864 106.67 236.296 106.67 236.141C106.67 235.987 107.051 235.969 107.182 235.969C107.947 235.969 108.43 234.439 109.591 234.914C109.844 235.018 110.125 235.271 110.421 235.441L130.47 223.322C130.472 222.999 130.478 222.697 130.468 222.498C130.426 221.584 130.179 220.703 130.895 219.98C131.604 219.264 130.817 218.698 131.13 218.065L139.144 218.079L300.462 120.563C300.437 119.915 300.375 119.282 300.215 118.603Z" fill="#CE1021"/>
<path d="M110.42 77.6197H133.809L141.048 54.0562L148.287 77.6197H171.676L152.742 92.2066L159.981 115.77L141.048 101.183L122.115 115.77L129.354 92.2066L110.42 77.6197Z" fill="#F7D618"/>
</svg>
